<svg version="1.1" id="Layer_1" xmlns="http://www.w3.org/2000/svg" xmlns:xlink="http://www.w3.org/1999/xlink" x="0" y="0" viewBox="0 0 141 80" xml:space="preserve"><style type="text/css">.st0{fill:#436a67}.st1{font-family:&amp;apos;Effra-Bold&amp;apos;}.st2{font-size:19.2829px}.st3{letter-spacing:1}.st4{clip-path:url(#SVGID_2_);fill:#436a67}</style><text transform="translate(16.002 75.546)"><tspan x="0" y="0" class="st0 st1 st2">S</tspan><tspan x="12.3" y="0" class="st0 st1 st2 st3">I</tspan><tspan x="18.8" y="0" class="st0 st1 st2">NCE</tspan><tspan x="59.5" y="0" class="st0 st1 st2"> 2</tspan><tspan x="75.2" y="0" class="st0 st1 st2">0</tspan><tspan x="86.3" y="0" class="st0 st1 st2">1</tspan><tspan x="96.9" y="0" class="st0 st1 st2">6</tspan></text><path class="st0" d="M106.4.6h5.3v23.8h-5.3zM138.3 12.7c-1.2-1.1-3-1.9-5.3-2.5-2.3-.6-3.7-1-4.3-1.4-.6-.4-.9-1-.9-1.7s.3-1.2.8-1.7c.5-.4 1.2-.6 2.1-.6 2.2 0 4.3.8 6.4 2.4l2.7-3.9c-1.2-1-2.6-1.8-4.2-2.3-1.6-.5-3.2-.8-4.8-.8-2.4 0-4.5.6-6.1 1.8-1.6 1.2-2.4 3-2.4 5.2 0 2.3.6 3.9 1.9 5 1.3 1.1 3.3 1.9 6.1 2.6 1.8.4 2.9.9 3.5 1.3.6.4.9 1 .9 1.7s-.3 1.3-.8 1.7c-.6.4-1.3.6-2.3.6-2.2 0-4.6-1.1-7.1-3.4l-3.2 3.9c3 2.8 6.4 4.2 10.2 4.2 2.6 0 4.7-.7 6.3-2 1.6-1.3 2.4-3.1 2.4-5.2-.1-2.2-.7-3.8-1.9-4.9M51.2 19.7v-4.9h9.6v-4.5h-9.6V5.4h11.9V.6H45.9v23.8h17.6v-4.7H51.2M37.4 24.4L27.1.6h-5.2L11.7 24.4h5.6l7.2-16.7 3.4 7.8h-3.8l-1.9 4.6h7.7l1.8 4.3h5.7M90.9 15.9c3-1.1 4.5-3.6 4.5-7.4 0-2.8-.8-4.8-2.4-6C91.4 1.3 88.8.6 85.1.6h-9v11.6h-1.5l-1.8 4.6h3.3v7.6h5.3v-7.6h3.7l5.3 7.6H97l-6.1-8.5m-1.8-4.5c-.7.6-1.9.9-3.7.9h-3.9V5.2h4c1.7 0 2.9.2 3.6.7.7.5 1 1.4 1 2.6-.1 1.3-.4 2.3-1 2.9zM120.3 39.8h-4.9v7.5h3.5c1.8 0 3.1-.3 3.9-.8.9-.6 1.3-1.6 1.3-3 0-2.5-1.3-3.7-3.8-3.7M44.7 44.7h5.1l-2.5-4.8-2.6 4.8"/><defs><path id="SVGID_1_" d="M.1.1h140.4V80H.1z"/></defs><clipPath id="SVGID_2_"><use xlink:href="#SVGID_1_" overflow="visible"/></clipPath><path class="st4" d="M26.1 42.8c.2-.1.3-.4.3-.8v-1.4c0-.4-.1-.7-.3-.8-.2-.1-.5-.1-.9-.1H19V43h6.2c.5 0 .8-.1.9-.2"/><path class="st4" d="M8.6 32.4L0 55.2h131.8l8.6-22.9H8.6m17.6 17.1L21.7 45h-2.6v4.4h-2.7V45h-1.5l.7-2h.8v-5.3h10.1c1.8 0 2.6.8 2.6 2.3v2.8c0 1.5-.9 2.3-2.6 2.3H25l4.8 4.4h-3.6zm26.2 0L51 46.8h-7.5l-1.4 2.6h-2.7l6.7-11.8h2.6l6.7 11.8h-3zm24.3-9.6h-5.4v9.7h-2.7v-9.7h-5.4v-2.1h13.6v2.1zm23.6 9.6H88.2V37.7h12v2h-9.3v2.6h5.4v2h-5.4v2.9h9.4v2.2zm25.9-2.7c-.6 1-1.4 1.7-2.4 2.2-.9.4-2.3.6-4.2.6h-6.9V37.7h7.6c2.2 0 3.8.5 5 1.5 1.2 1 1.7 2.4 1.7 4.3 0 1.1-.3 2.2-.8 3.2z"/></svg>