<svg width="76" height="64" viewBox="0 0 76 64" version="1.1" xmlns="http://www.w3.org/2000/svg"><title>Shape</title><g id="Home" stroke="none" stroke-width="1" fill="none" fill-rule="evenodd"><g id="Desktop-HD-Copy-5" fill="#FFF"><path d="M75.794 43.872c-2.035 8.105-5.522 15.588-12.41 18.137-17.954 6.64-37.31-6.136-50.862 1.8L0 51.29c6.712-2.84 15.268-13.77 25.206-15.048 5.165-.665 11.673 2.26 18.135 2.863 5.686.53 15.305-2.49 16.23 3.82.796 5.456-8.836 5.162-15.273 5.723 5.037 1.007 10.47 5.715 14.618 4.566 5.35-1.473 8.124-9.37 11.847-11.66 4.215-2.598 5.845-.93 5.032 2.318zM47.468 28.666v8.54c.344-.022.688-.046 1.034-.06 1.32-.09 2.685-.18 3.994-.18.276 0 .637.006 1.048.02.2-.648.338-1.334.338-2.094 0-1.982-.734-3.484-2.186-4.515-.838-.6-2.25-1.175-4.228-1.71zm-8.046-10.422c0 1.565.52 2.797 1.565 3.678 1.048.89 2.458 1.51 4.225 1.852v-11.16c-2.088.082-3.577.71-4.46 1.9-.892 1.188-1.33 2.432-1.33 3.73zm12.954 31.638c2.335 1.103 4.54 1.944 6.04 1.528 2.53-.695 4.543-3.468 6.492-6.155 1.563-2.146 3.033-4.172 4.876-5.304.39-.242.77-.45 1.143-.632 1.7-3.558 2.684-7.53 2.684-11.737C73.61 12.51 61.39.29 46.324.29c-15.076 0-27.29 12.22-27.29 27.29 0 2.802.424 5.508 1.21 8.05 1.53-.598 3.102-1.04 4.73-1.25 2.965-.378 6.22.276 9.64 1.088a19.69 19.69 0 0 1-.122-2.202h4.2c.076 1.31.244 2.377.475 3.26 1.46.312 2.915.582 4.354.714.528.052 1.11.056 1.702.054v-9.2c-3.435-.652-5.973-1.736-7.61-3.25-1.638-1.523-2.457-3.626-2.457-6.316 0-2.407.88-4.578 2.644-6.5 1.768-1.93 4.24-2.916 7.422-2.95V5.92h2.258v3.115c3.144.222 5.563 1.15 7.25 2.782 1.688 1.636 2.57 3.795 2.648 6.483h-4.156c-.11-1.204-.43-2.243-.97-3.114-1.005-1.6-2.588-2.438-4.772-2.518v11.564c3.67 1.026 6.163 1.993 7.474 2.898 2.142 1.49 3.208 3.686 3.208 6.6 0 1.51-.18 2.85-.533 4.053 1.786.74 3.395 2.147 3.795 4.874.226 1.533-.138 2.94-1.04 4.057-1.603 1.954-4.604 2.755-8.01 3.168z" id="Shape"/></g></g></svg>