<svg width="77" height="68" viewBox="0 0 77 68" version="1.1" xmlns="http://www.w3.org/2000/svg"><title>Group</title><g id="Home" stroke="none" stroke-width="1" fill="none" fill-rule="evenodd"><g id="Desktop-HD-Copy-5" fill="#FFF"><g id="Group" transform="translate(0 .542)"><circle id="Oval" cx="38.408" cy="9.098" r="8.967"/><path d="M69.798 33.768l-8.357-1.743c-2.847-.597-5.658.708-7.144 3.028a30.76 30.76 0 0 0-4.647-1.91v-4.97c.003-3.76-3.075-6.836-6.822-6.836h-8.546c-3.766 0-6.83 3.075-6.83 6.835v4.996a30.22 30.22 0 0 0-4.625 1.905c-1.486-2.33-4.3-3.645-7.15-3.048L7.31 33.768c-3.672.768-6.054 4.41-5.286 8.094l2.1 10.028c.76 3.675 4.405 6.058 8.08 5.29l2.646-.554c1.325 1.958 3.157 3.754 5.503 5.29 4.888 3.203 11.344 4.97 18.195 4.97 10.483 0 19.513-4.216 23.672-10.27l2.69.564c3.67.764 7.315-1.615 8.076-5.29l2.103-10.028c.765-3.684-1.617-7.326-5.292-8.094zM38.548 63.46c-6.19 0-11.99-1.558-16.318-4.408-1.483-.97-2.712-2.047-3.697-3.2l2.027-.426c3.677-.764 6.06-4.406 5.292-8.084l-1.88-9.016a25.746 25.746 0 0 1 3.475-1.55v1.645c0 3.755 3.072 6.83 6.832 6.83h8.544c3.75 0 6.822-3.078 6.822-6.83v-1.73c1.25.446 2.422.957 3.51 1.537l-1.908 9.12c-.762 3.677 1.618 7.318 5.296 8.083l2.046.428c-3.816 4.518-11.366 7.603-20.043 7.603z" id="Shape"/><circle id="Oval" cx="67.979" cy="20.886" r="8.967"/><path d="M10.96 29.665c4.85-1.015 7.95-5.77 6.947-10.618-1.022-4.844-5.768-7.955-10.622-6.94a8.965 8.965 0 0 0-6.94 10.61c1.012 4.852 5.764 7.96 10.615 6.948z" id="Shape"/></g></g></g></svg>