<svg width="77" height="66" viewBox="0 0 77 66" version="1.1" xmlns="http://www.w3.org/2000/svg"><title>Shape</title><g id="Home" stroke="none" stroke-width="1" fill="none" fill-rule="evenodd"><g id="Desktop-HD-Copy-3" fill="#FFF"><g id="Banner3"><g id="people-2-+-1-in-5-North-Carolin-+-1-in-4-children-live-+-Shape-+-Little-investment-in-+-and-loans-are-diffic-+-Group"><g id="Shape-+-Little-investment-in-+-and-loans-are-diffic"><path d="M74.71 25.913L41.368.96a4.81 4.81 0 0 0-5.766 0L22.117 11.05V8.617a4.812 4.812 0 0 0-4.81-4.81h-4.448a4.812 4.812 0 0 0-4.812 4.81V21.58l-6.12 4.58a4.812 4.812 0 0 0 2.883 8.664H8.05v25.512a4.81 4.81 0 0 0 4.81 4.81h51.25a4.81 4.81 0 0 0 4.81-4.81V34.823h3.269a4.81 4.81 0 0 0 2.52-8.91zM50.72 42.658c0 5.49-3.726 8.83-9.256 9.517v2.205a2.967 2.967 0 0 1-5.932 0v-2.45c-2.813-.53-5.55-1.625-7.964-3.352-.76-.533-1.292-1.515-1.292-2.582 0-1.78 1.422-3.158 3.204-3.158.89 0 1.51.308 1.957.62 2.363 1.736 4.94 2.804 7.97 2.804 2.805 0 4.498-1.112 4.498-2.938v-.09c0-1.734-1.068-2.622-6.28-3.962-6.273-1.6-10.327-3.34-10.327-9.53v-.09c0-4.82 3.32-8.223 8.233-9.13V18.2a2.966 2.966 0 0 1 5.933 0v2.344c2.444.4 4.667 1.228 6.628 2.477.76.44 1.518 1.38 1.518 2.717 0 1.778-1.426 3.16-3.206 3.16-.67 0-1.202-.177-1.734-.49-2.274-1.334-4.41-2.094-6.552-2.094-2.625 0-4.004 1.203-4.004 2.715v.09c0 2.048 1.334 2.717 6.723 4.098 6.318 1.647 9.883 3.92 9.883 9.348v.095l-.002-.002z" id="Shape"/></g></g></g></g></g></svg>