<svg width="77" height="73" viewBox="0 0 77 73" version="1.1" xmlns="http://www.w3.org/2000/svg" xmlns:xlink="http://www.w3.org/1999/xlink"><title>people-2</title><defs><path id="path-1" d="M25.506 42.263c-1.925 0-4.33-.96-4.33-2.88 0-1.922 2.405-1.442 4.33-4.804 0 0 8.663-23.534-8.662-23.534C-.48 11.046 8.18 34.58 8.18 34.58c1.926 3.36 4.332 2.88 4.332 4.802 0 1.92-2.406 2.88-4.33 2.88-2.888.48-5.295 0-8.182 2.883V72.52h24.063c.962-8.165 3.368-24.974 5.293-29.296l.48-.48c-.96-.48-2.405-.48-4.33-.48z"/><path id="path-3" d="M77 41.303c-3.37-3.842-6.256-3.362-9.625-3.842-2.406-.48-5.294-.96-5.294-3.36 0-2.403 2.89-1.442 5.295-5.764C67.375 28.336 77.48 0 56.788 0c-21.175.48-11.07 28.816-11.07 28.816 2.407 3.842 5.294 3.362 5.294 5.283 0 2.4-2.887 2.88-5.293 3.36-4.332.48-8.182 0-12.032 7.204-1.926 4.323-4.813 27.856-4.813 27.856H77V41.303z"/></defs><g id="Home" stroke="none" stroke-width="1" fill="none" fill-rule="evenodd"><g id="Desktop-HD-Copy-3"><g id="Banner3"><g id="people-2-+-1-in-5-North-Carolin-+-1-in-4-children-live-+-Shape-+-Little-investment-in-+-and-loans-are-diffic-+-Group"><g id="people-2-+-1-in-5-North-Carolin-+-1-in-4-children-live"><g id="people-2" transform="matrix(-1 0 0 1 77 0)"><mask id="mask-2" fill="#fff"><use xlink:href="#path-1"/></mask><use id="Mask" fill="#FFF" xlink:href="#path-1"/><mask id="mask-4" fill="#fff"><use xlink:href="#path-3"/></mask><use id="Mask" fill="#FFF" xlink:href="#path-3"/></g></g></g></g></g></g></svg>