<svg width="78" height="77" viewBox="0 0 78 77" version="1.1" xmlns="http://www.w3.org/2000/svg"><title>Shape</title><g id="Home" stroke="none" stroke-width="1" fill="none" fill-rule="evenodd"><g id="Desktop-HD-Copy-5" fill="#FFF"><path d="M72.687 60.156V31.28a4.812 4.812 0 0 0 2.603-8.86L41.603.766a4.81 4.81 0 0 0-5.205 0L2.71 22.42a4.81 4.81 0 0 0 2.603 8.86v28.876A4.813 4.813 0 0 0 .5 64.968v7.22a4.813 4.813 0 0 0 4.813 4.81h67.374a4.813 4.813 0 0 0 4.813-4.81v-7.22a4.813 4.813 0 0 0-4.813-4.812zm-48.124 0h-9.625V31.28h9.624v28.876zm19.25 0h-9.625V31.28h9.625v28.876zM39 21.656a4.813 4.813 0 1 1 .002-9.626A4.813 4.813 0 0 1 39 21.656zm24.063 38.5h-9.625V31.28h9.625v28.876z" id="Shape"/></g></g></svg>