<svg width="75" height="75" viewBox="0 0 75 75" version="1.1" xmlns="http://www.w3.org/2000/svg"><title>people</title><g id="Home" stroke="none" stroke-width="1" fill="none" fill-rule="evenodd"><g id="Desktop-HD-Copy-3" fill="#FFF"><g id="Banner3"><g id="people-2-+-1-in-5-North-Carolin-+-1-in-4-children-live-+-Shape-+-Little-investment-in-+-and-loans-are-diffic-+-Group"><g id="Group"><g id="people"><path d="M18.56 17.497c4.797 0 8.683-3.88 8.683-8.663 0-4.778-3.886-8.657-8.683-8.657s-8.687 3.88-8.687 8.657c0 4.784 3.89 8.663 8.687 8.663zM36.652 42.91c-1.08-2.468-1.988-5.048-2.865-7.542-2.3-6.54-5.05-15.764-9.45-15.764h-11.59c-4.572 0-7.156 9.223-9.45 15.764-.884 2.494-1.787 5.074-2.87 7.543-.747 1.705-.595 3.687 1.114 4.43.44.19.896.283 1.347.283 1.3 0 2.238-.996 2.79-2.258.847-1.936 2.224-6.14 3.128-8.72.21-.6.472-.992.42.05v8.737c0 .402.093.783.26 1.124.103.212.802.94.784 1.382v22.61c0 2.31 1.59 4.18 3.813 4.18s3.398-1.87 3.398-4.18V48.67s-.008-.632 1.006-.632h-.07c1 0 .983.63.983.63V70.55c0 2.307 1.17 4.178 3.39 4.178 2.223 0 3.816-1.87 3.816-4.18V48.407c0-.652.48-1.117.67-1.348.36-.446.576-1.012.576-1.626v-9.075c0-.873.18-.377.273-.042.708 2.59 2.09 7.264 2.977 9.29.554 1.26 1.37 2.018 2.67 2.018.452 0 .91-.093 1.35-.282 1.705-.743 2.276-2.725 1.53-4.43zM21.906 32.677l-2.86 2.624a.735.735 0 0 1-.975 0l-2.86-2.624c-.268-.246-.426-.737-.352-1.09l1.492-7.106c.023-.106.09-.428.084-.5l-.117-1.5a.602.602 0 0 1 .61-.657h3.262c.362 0 .637.296.608.658l-.117 1.5c-.005.072.063.394.085.5l1.492 7.105c.075.354-.083.845-.35 1.09zM51.272 9.252h11.57c.713 0 .713-.676.713-.676v-2.19s0-.68-.774-.68H51.273c-2.486 0-4.51 2.016-4.51 4.495v24.942s.073.537-.38.537h-6.356c-.592 0-.592.54-.592.54v2.364s-.057.642.536.642h6.4c.44 0 .394.49.394.49v24.99c0 2.477 2.022 4.494 4.508 4.494h11.58s.703 0 .703-.71V66.47c0-.808-.704-.82-.704-.82H51.273a.962.962 0 0 1-.95-.947V39.89s-.086-.664.48-.664H62.87a.622.622 0 0 0 .685-.607v-2.4s0-.54-.66-.54h-11.98c-.618 0-.594-.625-.594-.625V10.2c0-.513.436-.948.952-.948z" id="Shape"/><path d="M70.273 9.466l-1.778 2.548c-.256.356-.474.61-.652.762-.178.15-.404.227-.678.227-.304 0-.562-.095-.775-.284-.213-.19-.32-.408-.32-.654 0-.25.164-.61.49-1.076l2.163-3.1-1.917-2.582c-.333-.427-.5-.797-.5-1.112 0-.245.1-.46.298-.64.2-.18.46-.27.78-.27.28 0 .512.078.696.236.183.157.398.405.643.744l1.55 2.118 1.506-2.118c.25-.35.467-.6.65-.753.185-.152.414-.228.688-.228.315 0 .576.09.784.267a.82.82 0 0 1 .31.644c0 .18-.042.354-.127.52a3.958 3.958 0 0 1-.39.592L71.78 7.89l2.16 3.1c.34.484.51.85.51 1.094 0 .25-.106.467-.316.648-.21.18-.47.27-.78.27-.274 0-.506-.078-.696-.235-.19-.158-.407-.41-.652-.753l-1.733-2.548z" id="x"/><path d="M70.273 38.466l-1.778 2.548c-.256.356-.474.61-.652.762-.178.15-.404.227-.678.227-.304 0-.562-.095-.775-.284-.213-.19-.32-.408-.32-.654 0-.25.164-.61.49-1.076l2.163-3.1-1.917-2.582c-.333-.427-.5-.797-.5-1.112 0-.245.1-.46.298-.64.2-.18.46-.27.78-.27.28 0 .512.078.696.236.183.157.398.405.643.744l1.55 2.118 1.506-2.118c.25-.35.467-.6.65-.753.185-.152.414-.228.688-.228.315 0 .576.09.784.267a.82.82 0 0 1 .31.644c0 .18-.042.354-.127.52a3.958 3.958 0 0 1-.39.592L71.78 36.89l2.16 3.1c.34.484.51.85.51 1.094 0 .25-.106.467-.316.648-.21.18-.47.27-.78.27-.274 0-.506-.078-.696-.235-.19-.158-.407-.41-.652-.753l-1.733-2.548z" id="x-copy"/><path d="M70.273 68.466l-1.778 2.548c-.256.356-.474.61-.652.762-.178.15-.404.227-.678.227-.304 0-.562-.095-.775-.284-.213-.19-.32-.408-.32-.654 0-.25.164-.61.49-1.076l2.163-3.1-1.917-2.582c-.333-.427-.5-.797-.5-1.112 0-.245.1-.46.298-.64.2-.18.46-.27.78-.27.28 0 .512.078.696.236.183.157.398.405.643.744l1.55 2.118 1.506-2.118c.25-.35.467-.6.65-.753.185-.152.414-.228.688-.228.315 0 .576.09.784.267a.82.82 0 0 1 .31.644c0 .18-.042.354-.127.52a3.958 3.958 0 0 1-.39.592L71.78 66.89l2.16 3.1c.34.484.51.85.51 1.094 0 .25-.106.467-.316.648-.21.18-.47.27-.78.27-.274 0-.506-.078-.696-.235-.19-.158-.407-.41-.652-.753l-1.733-2.548z" id="x-copy-2"/></g></g></g></g></g></g></svg>