<?xml version="1.0" encoding="utf-8"?>
<!-- Generator: Adobe Illustrator 21.1.0, SVG Export Plug-In . SVG Version: 6.00 Build 0)  -->
<svg version="1.1" id="Layer_1" xmlns="http://www.w3.org/2000/svg" xmlns:xlink="http://www.w3.org/1999/xlink" x="0px" y="0px"
	 viewBox="0 0 141 80" style="enable-background:new 0 0 141 80;" xml:space="preserve">
<style type="text/css">
	.st0{fill:#436A67;}
	.st1{font-family:'Effra-Bold';}
	.st2{font-size:19.2829px;}
	.st3{letter-spacing:1;}
	.st4{clip-path:url(#SVGID_2_);fill:#436A67;}
</style>
<text transform="matrix(1 0 0 1 16.002 75.5459)"><tspan x="0" y="0" class="st0 st1 st2">S</tspan><tspan x="12.3" y="0" class="st0 st1 st2 st3">I</tspan><tspan x="18.8" y="0" class="st0 st1 st2">NCE</tspan><tspan x="59.5" y="0" class="st0 st1 st2"> 2</tspan><tspan x="75.2" y="0" class="st0 st1 st2">0</tspan><tspan x="86.3" y="0" class="st0 st1 st2">1</tspan><tspan x="96.9" y="0" class="st0 st1 st2">6</tspan></text>
<rect x="106.4" y="0.6" class="st0" width="5.3" height="23.8"/>
<path class="st0" d="M138.3,12.7c-1.2-1.1-3-1.9-5.3-2.5c-2.3-0.6-3.7-1-4.3-1.4c-0.6-0.4-0.9-1-0.9-1.7s0.3-1.2,0.8-1.7
	c0.5-0.4,1.2-0.6,2.1-0.6c2.2,0,4.3,0.8,6.4,2.4l2.7-3.9c-1.2-1-2.6-1.8-4.2-2.3c-1.6-0.5-3.2-0.8-4.8-0.8c-2.4,0-4.5,0.6-6.1,1.8
	c-1.6,1.2-2.4,3-2.4,5.2c0,2.3,0.6,3.9,1.9,5c1.3,1.1,3.3,1.9,6.1,2.6c1.8,0.4,2.9,0.9,3.5,1.3c0.6,0.4,0.9,1,0.9,1.7
	s-0.3,1.3-0.8,1.7c-0.6,0.4-1.3,0.6-2.3,0.6c-2.2,0-4.6-1.1-7.1-3.4l-3.2,3.9c3,2.8,6.4,4.2,10.2,4.2c2.6,0,4.7-0.7,6.3-2
	c1.6-1.3,2.4-3.1,2.4-5.2C140.1,15.4,139.5,13.8,138.3,12.7"/>
<polyline class="st0" points="51.2,19.7 51.2,14.8 60.8,14.8 60.8,10.3 51.2,10.3 51.2,5.4 63.1,5.4 63.1,0.6 45.9,0.6 45.9,24.4 
	63.5,24.4 63.5,19.7 51.2,19.7 "/>
<polyline class="st0" points="37.4,24.4 27.1,0.6 21.9,0.6 11.7,24.4 17.3,24.4 24.5,7.7 27.9,15.5 24.1,15.5 22.2,20.1 29.9,20.1 
	31.7,24.4 37.4,24.4 "/>
<path class="st0" d="M90.9,15.9c3-1.1,4.5-3.6,4.5-7.4c0-2.8-0.8-4.8-2.4-6c-1.6-1.2-4.2-1.9-7.9-1.9h-9v11.6h-1.5l-1.8,4.6h3.3v7.6
	h5.3v-7.6h3.7l5.3,7.6H97L90.9,15.9 M89.1,11.4c-0.7,0.6-1.9,0.9-3.7,0.9h-3.9V5.2h4c1.7,0,2.9,0.2,3.6,0.7c0.7,0.5,1,1.4,1,2.6
	C90,9.8,89.7,10.8,89.1,11.4z"/>
<path class="st0" d="M120.3,39.8h-4.9v7.5h3.5c1.8,0,3.1-0.3,3.9-0.8c0.9-0.6,1.3-1.6,1.3-3C124.1,41,122.8,39.8,120.3,39.8"/>
<polyline class="st0" points="44.7,44.7 49.8,44.7 47.3,39.9 44.7,44.7 "/>
<g>
	<defs>
		<rect id="SVGID_1_" x="0.1" y="0.1" width="140.4" height="79.9"/>
	</defs>
	<clipPath id="SVGID_2_">
		<use xlink:href="#SVGID_1_"  style="overflow:visible;"/>
	</clipPath>
	<path class="st4" d="M26.1,42.8c0.2-0.1,0.3-0.4,0.3-0.8v-1.4c0-0.4-0.1-0.7-0.3-0.8c-0.2-0.1-0.5-0.1-0.9-0.1h-6.2V43h6.2
		C25.7,43,26,42.9,26.1,42.8"/>
	<path class="st4" d="M8.6,32.4L0,55.2h131.8l8.6-22.9H8.6 M26.2,49.4L21.7,45h-2.6v4.4h-2.7V45h-1.5l0.7-2h0.8v-5.3h10.1
		c1.8,0,2.6,0.8,2.6,2.3v2.8c0,1.5-0.9,2.3-2.6,2.3h-1.5l4.8,4.4H26.2z M52.4,49.4L51,46.8h-7.5l-1.4,2.6h-2.7l6.7-11.8h2.6
		l6.7,11.8H52.4z M76.7,39.8h-5.4v9.7h-2.7v-9.7h-5.4v-2.1h13.6V39.8z M100.3,49.4H88.2V37.7h12v2h-9.3v2.6h5.4v2h-5.4v2.9h9.4V49.4
		z M126.2,46.7c-0.6,1-1.4,1.7-2.4,2.2c-0.9,0.4-2.3,0.6-4.2,0.6h-6.9V37.7h7.6c2.2,0,3.8,0.5,5,1.5c1.2,1,1.7,2.4,1.7,4.3
		C127,44.6,126.7,45.7,126.2,46.7z"/>
</g>
</svg>
